<?xml version="1.0" encoding="utf-8"?>
<!-- Generator: Adobe Illustrator 19.2.1, SVG Export Plug-In . SVG Version: 6.00 Build 0)  -->
<svg version="1.1" id="Layer_1" xmlns="http://www.w3.org/2000/svg" xmlns:xlink="http://www.w3.org/1999/xlink" x="0px" y="0px"
	 viewBox="0 0 423 102" style="enable-background:new 0 0 423 102;" xml:space="preserve">
<style type="text/css">
	.st0{fill:#EF5350;}
	.st1{fill:#00BBD3;}
</style>
<title>Group 3</title>
<desc>Created with Sketch.</desc>
<g id="Page-1">
	<g id="CC_option-1" transform="translate(-312.000000, -330.000000)">
		<g id="Group-3" transform="translate(312.000000, 317.000000)">
			<g id="Group-Copy-2" transform="translate(0.000000, 14.000000)">
				<path id="Combined-Shape" class="st0" d="M99,60c-4.6,22.8-24.8,40-49,40C22.4,100,0,77.6,0,50S22.4,0,50,0
					c24.2,0,44.4,17.2,49,40H78.3C74.2,28.3,63.1,20,50,20c-16.6,0-30,13.4-30,30s13.4,30,30,30c13.1,0,24.2-8.3,28.3-20H99z"/>
				<path id="Combined-Shape-Copy" class="st1" d="M135,60c-4.6,22.8-24.8,40-49,40c-27.6,0-50-22.4-50-50S58.4,0,86,0
					c24.2,0,44.4,17.2,49,40h-20.7C110.2,28.3,99.1,20,86,20c-16.6,0-30,13.4-30,30s13.4,30,30,30c13.1,0,24.2-8.3,28.3-20H135z"/>
				<path id="Combined-Shape_1_" class="st0" d="M98.8,60.9c-5,22.3-25,39-48.8,39c-27.6,0-50-22.4-50-50C0,31,10.5,14.5,26,6v25.9
					c-3.8,5-6,11.2-6,18c0,16.6,13.4,30,30,30c12.7,0,23.5-7.9,27.9-19H98.8z"/>
			</g>
		</g>
	</g>
</g>
</svg>
